<svg width="32" height="32" viewBox="0 0 200 200" fill="none" xmlns="http://www.w3.org/2000/svg">
  <!-- Centered gear (outer circle) -->
  <g transform="translate(100, 100)">
    <!-- Gear teeth -->
    <path d="M 0,-70 L 10,-75 L 10,-85 L -10,-85 L -10,-75 Z" fill="#2563EB" transform="rotate(0)"/>
    <path d="M 0,-70 L 10,-75 L 10,-85 L -10,-85 L -10,-75 Z" fill="#2563EB" transform="rotate(45)"/>
    <path d="M 0,-70 L 10,-75 L 10,-85 L -10,-85 L -10,-75 Z" fill="#2563EB" transform="rotate(90)"/>
    <path d="M 0,-70 L 10,-75 L 10,-85 L -10,-85 L -10,-75 Z" fill="#2563EB" transform="rotate(135)"/>
    <path d="M 0,-70 L 10,-75 L 10,-85 L -10,-85 L -10,-75 Z" fill="#2563EB" transform="rotate(180)"/>
    <path d="M 0,-70 L 10,-75 L 10,-85 L -10,-85 L -10,-75 Z" fill="#2563EB" transform="rotate(225)"/>
    <path d="M 0,-70 L 10,-75 L 10,-85 L -10,-85 L -10,-75 Z" fill="#2563EB" transform="rotate(270)"/>
    <path d="M 0,-70 L 10,-75 L 10,-85 L -10,-85 L -10,-75 Z" fill="#2563EB" transform="rotate(315)"/>
    
    <!-- Gear body (circle) -->
    <circle cx="0" cy="0" r="70" fill="#1E40AF"/>
    <circle cx="0" cy="0" r="60" fill="#2563EB"/>
    
    <!-- Brain/Circuit hybrid -->
    <!-- Left hemisphere -->
    <path d="M -30,-20 Q -40,-10 -40,0 Q -40,10 -30,20 L -30,-20 Z" fill="#60A5FA" stroke="#1E40AF" stroke-width="2"/>
    
    <!-- Right hemisphere -->
    <path d="M 30,-20 Q 40,-10 40,0 Q 40,10 30,20 L 30,-20 Z" fill="#60A5FA" stroke="#1E40AF" stroke-width="2"/>
    
    <!-- Central connection -->
    <rect x="-5" y="-25" width="10" height="50" fill="#60A5FA" stroke="#1E40AF" stroke-width="2"/>
    
    <!-- Circuit lines extending right -->
    <line x1="30" y1="-15" x2="55" y2="-15" stroke="#F97316" stroke-width="3" stroke-linecap="round"/>
    <circle cx="58" cy="-15" r="3" fill="#F97316"/>
    
    <line x1="30" y1="0" x2="60" y2="0" stroke="#F97316" stroke-width="3" stroke-linecap="round"/>
    <circle cx="63" cy="0" r="3" fill="#F97316"/>
    
    <line x1="30" y1="15" x2="55" y2="15" stroke="#F97316" stroke-width="3" stroke-linecap="round"/>
    <circle cx="58" cy="15" r="3" fill="#F97316"/>
    
    <!-- Additional circuit nodes -->
    <circle cx="10" cy="-10" r="2.5" fill="#F97316"/>
    <circle cx="-10" cy="10" r="2.5" fill="#F97316"/>
    <circle cx="0" cy="0" r="2.5" fill="#F97316"/>
  </g>
</svg>
